<svg xmlns="http://www.w3.org/2000/svg" xmlns:xlink="http://www.w3.org/1999/xlink" width="500" zoomAndPan="magnify" viewBox="0 0 375 374.999991" height="500" preserveAspectRatio="xMidYMid meet" version="1.0"><defs><clipPath id="id1"><path d="M 140.246094 157 L 196 157 L 196 255.414062 L 140.246094 255.414062 Z M 140.246094 157 " clip-rule="nonzero"/></clipPath><clipPath id="id2"><path d="M 163 106.164062 L 218.246094 106.164062 L 218.246094 204 L 163 204 Z M 163 106.164062 " clip-rule="nonzero"/></clipPath></defs><g clip-path="url(#id1)"><path fill="#7b2cbf" d="M 156.402344 157.605469 L 187.257812 198.421875 C 188.058594 199.484375 188.808594 200.582031 189.503906 201.71875 C 190.195312 202.851562 190.835938 204.019531 191.414062 205.214844 C 191.992188 206.414062 192.511719 207.636719 192.972656 208.882812 C 193.433594 210.132812 193.832031 211.402344 194.164062 212.6875 C 194.5 213.976562 194.773438 215.277344 194.980469 216.589844 C 195.1875 217.90625 195.328125 219.226562 195.40625 220.554688 C 195.484375 221.882812 195.496094 223.210938 195.441406 224.539062 C 195.390625 225.871094 195.269531 227.195312 195.085938 228.511719 C 194.90625 229.828125 194.65625 231.132812 194.347656 232.429688 C 194.035156 233.722656 193.660156 234.996094 193.222656 236.253906 C 192.785156 237.507812 192.289062 238.742188 191.730469 239.949219 C 191.171875 241.15625 190.558594 242.335938 189.882812 243.484375 C 189.210938 244.628906 188.480469 245.742188 187.699219 246.816406 C 186.914062 247.894531 186.082031 248.929688 185.199219 249.921875 C 184.3125 250.917969 183.382812 251.867188 182.402344 252.769531 C 181.425781 253.671875 180.40625 254.523438 179.34375 255.328125 L 148.492188 214.511719 C 147.6875 213.449219 146.941406 212.351562 146.246094 211.214844 C 145.550781 210.082031 144.914062 208.914062 144.335938 207.71875 C 143.753906 206.519531 143.234375 205.296875 142.773438 204.046875 C 142.316406 202.800781 141.917969 201.53125 141.582031 200.246094 C 141.246094 198.957031 140.976562 197.65625 140.769531 196.34375 C 140.5625 195.027344 140.417969 193.707031 140.34375 192.378906 C 140.265625 191.050781 140.253906 189.722656 140.304688 188.390625 C 140.359375 187.0625 140.476562 185.738281 140.660156 184.421875 C 140.84375 183.105469 141.089844 181.796875 141.402344 180.503906 C 141.714844 179.210938 142.089844 177.9375 142.523438 176.679688 C 142.960938 175.421875 143.460938 174.191406 144.015625 172.984375 C 144.574219 171.777344 145.191406 170.597656 145.863281 169.449219 C 146.539062 168.304688 147.265625 167.191406 148.050781 166.117188 C 148.832031 165.039062 149.667969 164.003906 150.550781 163.011719 C 151.433594 162.015625 152.367188 161.066406 153.34375 160.164062 C 154.320312 159.261719 155.34375 158.410156 156.402344 157.605469 Z M 156.402344 157.605469 " fill-opacity="1" fill-rule="nonzero"/></g><g clip-path="url(#id2)"><path fill="#c77dff" d="M 179.164062 106.226562 L 210.019531 147.039062 C 210.820312 148.101562 211.570312 149.203125 212.265625 150.335938 C 212.960938 151.472656 213.597656 152.640625 214.175781 153.835938 C 214.757812 155.035156 215.277344 156.257812 215.738281 157.507812 C 216.195312 158.757812 216.59375 160.027344 216.929688 161.3125 C 217.265625 162.601562 217.535156 163.902344 217.742188 165.21875 C 217.949219 166.53125 218.089844 167.855469 218.167969 169.183594 C 218.246094 170.511719 218.257812 171.839844 218.203125 173.171875 C 218.148438 174.5 218.03125 175.824219 217.847656 177.144531 C 217.664062 178.460938 217.417969 179.765625 217.105469 181.0625 C 216.792969 182.355469 216.417969 183.628906 215.980469 184.886719 C 215.542969 186.144531 215.042969 187.375 214.484375 188.585938 C 213.925781 189.792969 213.308594 190.972656 212.636719 192.117188 C 211.960938 193.265625 211.230469 194.378906 210.449219 195.453125 C 209.664062 196.53125 208.828125 197.566406 207.945312 198.558594 C 207.058594 199.554688 206.125 200.5 205.148438 201.402344 C 204.167969 202.304688 203.148438 203.160156 202.085938 203.960938 L 171.230469 163.144531 C 170.429688 162.082031 169.679688 160.984375 168.984375 159.847656 C 168.289062 158.714844 167.652344 157.546875 167.074219 156.347656 C 166.492188 155.152344 165.972656 153.925781 165.515625 152.679688 C 165.054688 151.429688 164.65625 150.160156 164.320312 148.871094 C 163.988281 147.585938 163.714844 146.28125 163.507812 144.96875 C 163.300781 143.652344 163.160156 142.332031 163.082031 141.003906 C 163.003906 139.675781 162.992188 138.34375 163.046875 137.015625 C 163.101562 135.6875 163.21875 134.363281 163.402344 133.042969 C 163.585938 131.726562 163.835938 130.417969 164.148438 129.125 C 164.457031 127.832031 164.832031 126.554688 165.269531 125.300781 C 165.707031 124.042969 166.207031 122.808594 166.765625 121.601562 C 167.324219 120.394531 167.941406 119.214844 168.617188 118.066406 C 169.289062 116.921875 170.019531 115.808594 170.804688 114.730469 C 171.585938 113.65625 172.421875 112.621094 173.308594 111.628906 C 174.191406 110.632812 175.125 109.683594 176.101562 108.78125 C 177.082031 107.878906 178.101562 107.027344 179.164062 106.226562 Z M 179.164062 106.226562 " fill-opacity="1" fill-rule="nonzero"/></g></svg>