<svg xmlns="http://www.w3.org/2000/svg" id="Layer_1" x="0" y="0" version="1.1" viewBox="0 0 29 29" xml:space="preserve"><path d="M4.5 9h17a2 2 0 0 1 2 2v7a2 2 0 0 1-2 2h-17a2 2 0 0 1-2-2v-7a2 2 0 0 1 2-2z"/><path d="M22.5 12.511c-.604.456-1 1.173-1 1.989s.396 1.532 1 1.989v-3.978zM24.5 12.05v4.899a2.5 2.5 0 000-4.899z"/><path d="M4.5 9h17a2 2 0 0 1 2 2v7a2 2 0 0 1-2 2h-17a2 2 0 0 1-2-2v-7a2 2 0 0 1 2-2z"/><path d="M22.5 12.511c-.604.456-1 1.173-1 1.989s.396 1.532 1 1.989v-3.978zM24.5 12.05v4.899a2.5 2.5 0 000-4.899z"/></svg>