<svg xmlns="http://www.w3.org/2000/svg" width="64" height="64"><path style="text-indent:0;text-align:start;line-height:normal;text-transform:none;block-progression:tb;marker:none;-inkscape-font-specification:Sans" d="M 13.5 3.25 C 10.74253 3.25 8.5 5.47355 8.5 8.21875 L 8.5 9.75 L 7.5625 9.75 A 0.50005 0.50005 0 0 0 7.5 9.75 L 4.5 9.75 C 3.677649 9.75 3 10.4276 3 11.25 L 3 16.25 L 3 20.21875 L 3 27.75 L 3 31.25 C 3 32.0723 3.677649 32.75 4.5 32.75 L 7.5 32.75 A 0.50005 0.50005 0 0 0 7.5625 32.75 L 19.15625 32.75 L 21.15625 32.75 L 23.5 32.75 L 31.84375 32.75 C 32.470114 32.75 33 32.21885 33 31.59375 L 33 25.65625 L 33 20.78125 L 33 18.65625 C 33 18.03115 32.470021 17.5 31.84375 17.5 L 29.59375 17.5 L 29.59375 16.6875 C 29.59375 14.8173 28.088619 13.3125 26.21875 13.3125 C 26.037703 13.3125 25.861203 13.34782 25.6875 13.375 C 25.465904 13.324109 25.236067 13.285622 25 13.28125 L 25 11.25 C 25 10.4276 24.322351 9.75 23.5 9.75 L 20.5 9.75 L 20.5 8.21875 C 20.5 5.47355 18.257479 3.25 15.5 3.25 C 15.155316 3.25 14.825218 3.2775895 14.5 3.34375 C 14.174782 3.2775895 13.844685 3.25 13.5 3.25 z M 14.5 4.40625 C 16.229952 4.8447446 17.5 6.3588843 17.5 8.21875 L 17.5 9.75 L 11.5 9.75 L 11.5 8.21875 C 11.5 6.3588843 12.770052 4.8447446 14.5 4.40625 z M 12.28125 4.46875 C 11.207806 5.379904 10.5 6.7055148 10.5 8.21875 L 10.5 9.75 L 9.5 9.75 L 9.5 8.21875 C 9.5 6.4391536 10.66593 4.9783505 12.28125 4.46875 z M 16.71875 4.46875 C 18.334073 4.9783505 19.5 6.4391536 19.5 8.21875 L 19.5 9.75 L 18.5 9.75 L 18.5 8.21875 C 18.5 6.7055148 17.792193 5.379904 16.71875 4.46875 z M 4.5 10.75 L 6.09375 10.75 C 6.0333952 10.911752 6 11.068387 6 11.25 C 5.9985 11.4499 5.830496 11.7329 5.53125 11.875 C 5.230388 12.0178 4.769612 12.0178 4.46875 11.875 C 4.169504 11.7329 4.001477 11.4499 4 11.25 C 4 11.178575 4.0066913 11.122767 4.03125 11.0625 C 4.104926 10.881698 4.2857633 10.75 4.5 10.75 z M 7.5 10.75 A 0.50005 0.50005 0 0 0 7.5625 10.75 L 10.5 10.75 L 10.5 12.34375 C 9.9149834 12.548934 9.5 13.098854 9.5 13.75 C 9.5 14.5725 10.17751 15.25 11 15.25 C 11.82249 15.25 12.5 14.5725 12.5 13.75 C 12.5 13.098854 12.085017 12.548934 11.5 12.34375 L 11.5 10.75 L 19.5 10.75 L 19.5 12.34375 C 18.914983 12.548934 18.5 13.098854 18.5 13.75 C 18.5 14.5725 19.17751 15.25 20 15.25 C 20.82249 15.25 21.5 14.5725 21.5 13.75 C 21.5 13.098854 21.085017 12.548934 20.5 12.34375 L 20.5 10.75 L 23.5 10.75 C 23.785649 10.75 24 10.9643 24 11.25 L 24 13.4375 C 22.585059 13.851334 21.53125 15.145396 21.53125 16.6875 L 21.53125 17.5 L 21.15625 17.5 A 0.50004997 0.50004997 0 0 0 21.125 17.5 A 0.50004997 0.50004997 0 0 0 21.0625 17.5 L 19.15625 17.5 C 18.529979 17.5 18 18.03115 18 18.65625 L 18 21.875 L 18 24.46875 L 18 29.34375 L 18 31.59375 C 18 31.649399 18.023157 31.696148 18.03125 31.75 L 7.5625 31.75 A 0.50005 0.50005 0 0 0 7.5 31.75 C 7.4285878 31.75 7.3727648 31.743313 7.3125 31.71875 C 7.1317056 31.645062 7 31.4642 7 31.25 L 7 27 A 0.50005 0.50005 0 0 0 7 26.875 L 7 19.5625 L 7 19.40625 A 0.50005 0.50005 0 0 0 7 19.375 L 7 16.25 L 7 11.25 C 7 11.178575 7.0066913 11.122767 7.03125 11.0625 C 7.104926 10.881698 7.2857633 10.75 7.5 10.75 z M 4 12.71875 C 4.01339 12.725468 4.0176761 12.743556 4.03125 12.75 C 4.637286 13.0376 5.362714 13.0376 5.96875 12.75 C 5.9823239 12.743556 5.9866101 12.725468 6 12.71875 L 6 16.25 L 6 19.375 A 0.50005 0.50005 0 0 0 6 19.46875 L 6 19.5625 L 6 26.90625 A 0.50005 0.50005 0 0 0 6 27 L 6 31.25 C 6 31.421313 6.0397453 31.59606 6.09375 31.75 L 4.5 31.75 C 4.214351 31.75 4 31.5356 4 31.25 L 4 27.75 L 4 20.21875 L 4 16.25 L 4 12.71875 z M 11 13.25 C 11.28207 13.25 11.5 13.4679 11.5 13.75 C 11.5 14.0321 11.28207 14.25 11 14.25 C 10.71793 14.25 10.5 14.0321 10.5 13.75 C 10.5 13.4679 10.71793 13.25 11 13.25 z M 20 13.25 C 20.28207 13.25 20.5 13.4679 20.5 13.75 C 20.5 14.0321 20.28207 14.25 20 14.25 C 19.71793 14.25 19.5 14.0321 19.5 13.75 C 19.5 13.4679 19.71793 13.25 20 13.25 z M 25.625 14.40625 C 26.613625 14.700442 27.3125 15.592942 27.3125 16.6875 L 27.3125 17.5 L 23.8125 17.5 L 23.8125 16.6875 C 23.8125 15.556686 24.577763 14.660172 25.625 14.40625 z M 23.34375 14.90625 C 23.01345 15.425418 22.8125 16.026975 22.8125 16.6875 L 22.8125 17.5 L 22.53125 17.5 L 22.53125 16.6875 C 22.53125 15.973179 22.85292 15.346085 23.34375 14.90625 z M 27.84375 14.9375 C 28.309096 15.368114 28.59375 15.987638 28.59375 16.6875 L 28.59375 17.5 L 28.3125 17.5 L 28.3125 16.6875 C 28.3125 16.049597 28.148741 15.449969 27.84375 14.9375 z M 19.15625 18.5 L 20 18.5 C 19.9907 18.558 19.9375 18.59605 19.9375 18.65625 C 19.937135 18.70625 19.85658 18.84035 19.71875 18.90625 C 19.580249 18.97225 19.326001 18.97225 19.1875 18.90625 C 19.049669 18.84025 19.000364 18.70665 19 18.65625 C 19 18.61025 19.002951 18.59005 19.03125 18.5625 C 19.059549 18.53495 19.113195 18.5 19.15625 18.5 z M 21.125 18.5 A 0.50004997 0.50004997 0 0 0 21.15625 18.5 L 21.1875 18.5 L 22.8125 18.5 L 22.8125 19.40625 C 22.273083 19.603201 21.875 20.112834 21.875 20.71875 C 21.875 21.49325 22.50663 22.125 23.28125 22.125 C 24.05587 22.125 24.6875 21.49325 24.6875 20.71875 C 24.6875 20.138025 24.316939 19.651517 23.8125 19.4375 L 23.8125 18.5 L 28.59375 18.5 L 28.59375 19.4375 C 28.07462 19.644695 27.6875 20.127418 27.6875 20.71875 C 27.6875 21.49325 28.31913 22.125 29.09375 22.125 C 29.86837 22.125 30.53125 21.49325 30.53125 20.71875 C 30.53125 20.115441 30.137913 19.605107 29.59375 19.40625 L 29.59375 18.5 L 31.84375 18.5 C 31.92986 18.5 32 18.56405 32 18.65625 L 32 20.78125 L 32 25.65625 L 32 31.59375 C 32 31.68575 31.92977 31.75 31.84375 31.75 L 23.5 31.75 L 21.1875 31.75 A 0.50004997 0.50004997 0 0 0 21.15625 31.75 C 21.13601 31.75 21.111532 31.756621 21.09375 31.75 C 21.073745 31.742551 21.046238 31.733329 21.03125 31.71875 C 21.00294 31.691212 21 31.6399 21 31.59375 L 21 28.84375 A 0.50004997 0.50004997 0 0 0 21 28.75 L 21 24.03125 A 0.50004997 0.50004997 0 0 0 21 24 L 21 23.9375 A 0.50004997 0.50004997 0 0 0 21 23.90625 L 21 21.875 L 21 18.65625 C 21 18.57345 21.050863 18.511228 21.125 18.5 z M 19.96875 19.875 L 20 21.875 L 20 21.90625 L 20 23.90625 A 0.50004997 0.50004997 0 0 0 20 24 L 20 24.03125 L 20 28.78125 A 0.50004997 0.50004997 0 0 0 20 28.84375 L 20 31.59375 C 20 31.649399 20.023157 31.696148 20.03125 31.75 L 19.15625 31.75 C 19.07023 31.75 19 31.68605 19 31.59375 L 19 29.34375 L 19 24.46875 L 19 21.875 L 19 19.90625 C 19.320144 20.007024 19.649713 19.98389 19.96875 19.875 z M 23.28125 20.3125 C 23.51229 20.3125 23.6875 20.48175 23.6875 20.71875 C 23.6875 20.95595 23.51229 21.125 23.28125 21.125 C 23.05021 21.125 22.875 20.95595 22.875 20.71875 C 22.875 20.48175 23.05021 20.3125 23.28125 20.3125 z M 29.09375 20.3125 C 29.32479 20.3125 29.53125 20.48175 29.53125 20.71875 C 29.53125 20.95595 29.32479 21.125 29.09375 21.125 C 28.86271 21.125 28.6875 20.95595 28.6875 20.71875 C 28.6875 20.48175 28.86271 20.3125 29.09375 20.3125 z " color="#000" enable-background="accumulate" font-family="Sans" font-weight="400" overflow="visible"/></svg>